<svg aria-hidden="true" style="position: absolute; width: 0; height: 0; overflow: hidden;" version="1.1" xmlns="http://www.w3.org/2000/svg" xmlns:xlink="http://www.w3.org/1999/xlink">
<defs>
<symbol id="icon-cart" viewBox="0 0 38 32">
<title>cart</title>
<path d="M37.824 7.808v0l-5.291 11.733c-0.256 0.576-0.811 1.003-1.493 1.045v0l-15.189 1.003 0.875 2.517h16.555c1.941 0 3.52 1.579 3.52 3.52s-1.579 3.52-3.52 3.52c-1.941 0-3.52-1.579-3.52-3.52h-16.427c0 1.941-1.579 3.52-3.52 3.52s-3.52-1.579-3.52-3.52c0-1.941 1.579-3.52 3.52-3.52h3.179l-6.784-19.371h-4.032c-0.96 0-1.749-0.768-1.749-1.749s0.789-1.771 1.749-1.771h5.291c0.768 0 1.408 0.512 1.664 1.195v0l1.024 2.923h26.048c0.981 0 1.771 0.789 1.771 1.749 0 0.277-0.064 0.512-0.149 0.725zM11.392 8.853l3.243 9.301 15.125-1.024 3.733-8.277h-22.101z"></path>
</symbol>
<symbol id="icon-glass" viewBox="0 0 32 32">
<title>glass</title>
<path  d="M30.791 26.631c0.533 0.533 0.853 1.262 0.853 2.080 0 1.618-1.316 2.933-2.933 2.933-0.818 0-1.547-0.338-2.080-0.853v0l-8.587-8.604c-1.742 1.031-3.787 1.636-5.956 1.636-6.489 0-11.733-5.262-11.733-11.733 0-6.489 5.244-11.733 11.733-11.733s11.733 5.244 11.733 11.733c0 2.169-0.604 4.196-1.636 5.956l8.604 8.587zM12.089 3.289c-4.853 0-8.8 3.947-8.8 8.8s3.947 8.8 8.8 8.8c4.853 0 8.8-3.947 8.8-8.8s-3.947-8.8-8.8-8.8z"></path>
<symbol id="icon-image" viewBox="0 0 34 32">
<title>image</title>
<path  d="M31.5 32h-29c-0.83 0-1.5-0.67-1.5-1.5v-29c0-0.83 0.67-1.5 1.5-1.5h29c0.83 0 1.5 0.67 1.5 1.5v29c0 0.83-0.67 1.5-1.5 1.5zM30 3h-26v26h26v-26zM7.5 4.5h5.5c0.83 0 1.5 0.67 1.5 1.5s-0.67 1.5-1.5 1.5v0h-4.5v4.5c0 0.83-0.67 1.5-1.5 1.5s-1.5-0.67-1.5-1.5v0-7.5h2zM5.5 20v0c0-0.83 0.67-1.5 1.5-1.5s1.5 0.67 1.5 1.5v0 4.5h4.5c0.83 0 1.5 0.67 1.5 1.5s-0.67 1.5-1.5 1.5v0h-7.5v-7.5zM21 4.5v0h7.5v7.5c0 0.83-0.67 1.5-1.5 1.5s-1.5-0.67-1.5-1.5v0-4.5h-4.5c-0.83 0-1.5-0.67-1.5-1.5s0.67-1.5 1.5-1.5zM21 24.5v0h4.5v-4.5c0-0.83 0.67-1.5 1.5-1.5s1.5 0.67 1.5 1.5v0 7.5h-7.5c-0.83 0-1.5-0.67-1.5-1.5s0.67-1.5 1.5-1.5z"></path>
</symbol>
<symbol id="icon-home" viewBox="0 0 34 32">
<title>home</title>
<path  d="M34.065 17.032c0 0.857-0.692 1.548-1.548 1.548-0.413 0-0.774-0.165-1.053-0.423v0.010l-13.915-13.915-13.884 13.884c-0.279 0.268-0.661 0.444-1.084 0.444-0.857 0-1.548-0.692-1.548-1.548 0-0.444 0.186-0.836 0.475-1.115l14.926-14.926c0.279-0.289 0.681-0.475 1.115-0.475v0 0c0 0 0 0 0 0 0.031 0 0.052 0 0.083 0 0 0 0.010 0 0.010 0 0.021 0 0.052 0.010 0.072 0.010 0 0 0 0 0 0 0.382 0.041 0.723 0.217 0.97 0.485v0l6.090 6.090v-1.425c0-0.857 0.692-1.548 1.548-1.548s1.548 0.692 1.548 1.548v4.521l5.781 5.781h-0.010c0.258 0.279 0.423 0.64 0.423 1.053zM30.968 19.613v10.839c0 0.857-0.692 1.548-1.548 1.548h-3.097v-12.387h-6.194v12.387h-14.452c-0.857 0-1.548-0.692-1.548-1.548v-10.839l13.419-13.419 13.419 13.419zM14.968 19.613h-6.194v6.194h6.194v-6.194z"></path>
</symbol>
<symbol id="icon-book" viewBox="0 0 33 32">
<title>book</title>
<path d="M32.060 25.89l-14.47 5.99c-0.18 0.080-0.38 0.12-0.59 0.12s-0.41-0.040-0.59-0.12l-14.47-5.99c-0.55-0.22-0.94-0.76-0.94-1.39v-23c0-0.83 0.67-1.5 1.5-1.5 0.2 0 0.4 0.040 0.57 0.11v0h0.010c0 0.010 0 0.010 0.010 0.010l13.91 5.76 13.91-5.76c0 0 0.010 0 0.010-0.010h0.010c0.17-0.070 0.37-0.11 0.57-0.11 0.83 0 1.5 0.67 1.5 1.5v23c0 0.63-0.39 1.17-0.94 1.39zM15.5 8.5l-11.5-4.76v19.76l11.5 4.76v-19.76zM30 3.74l-11.5 4.76v19.76l11.5-4.76v-19.76zM20.88 10.63l5.5-2.5c0.19-0.080 0.4-0.13 0.62-0.13 0.83 0 1.5 0.67 1.5 1.5 0 0.61-0.36 1.13-0.88 1.37v0l-5.5 2.5c-0.19 0.080-0.4 0.13-0.62 0.13-0.83 0-1.5-0.67-1.5-1.5 0-0.61 0.36-1.13 0.88-1.37zM20.88 16.13v0l5.5-2.5c0.19-0.080 0.4-0.13 0.62-0.13 0.83 0 1.5 0.67 1.5 1.5 0 0.61-0.36 1.13-0.88 1.37l-5.5 2.5v-0.010c-0.19 0.090-0.4 0.14-0.62 0.14-0.83 0-1.5-0.67-1.5-1.5 0-0.61 0.36-1.13 0.88-1.37zM20.88 21.63v0l5.5-2.5c0.19-0.080 0.4-0.13 0.62-0.13 0.83 0 1.5 0.67 1.5 1.5 0 0.61-0.36 1.13-0.88 1.37v0l-5.5 2.5c-0.19 0.080-0.4 0.13-0.62 0.13-0.83 0-1.5-0.67-1.5-1.5 0-0.61 0.36-1.13 0.88-1.37zM7 8c0.22 0 0.43 0.050 0.62 0.13v0l5.5 2.5c0.52 0.24 0.88 0.76 0.88 1.37 0 0.83-0.67 1.5-1.5 1.5-0.22 0-0.43-0.050-0.62-0.13v0l-5.5-2.5c-0.52-0.24-0.88-0.76-0.88-1.37 0-0.83 0.67-1.5 1.5-1.5zM7 13.5c0.22 0 0.43 0.050 0.62 0.13v0l5.5 2.5c0.52 0.24 0.88 0.76 0.88 1.37 0 0.83-0.67 1.5-1.5 1.5-0.22 0-0.43-0.050-0.62-0.14v0.010l-5.5-2.5c-0.52-0.24-0.88-0.76-0.88-1.37 0-0.83 0.67-1.5 1.5-1.5zM7 19c0.22 0 0.43 0.050 0.62 0.13v0l5.5 2.5c0.52 0.24 0.88 0.76 0.88 1.37 0 0.83-0.67 1.5-1.5 1.5-0.22 0-0.43-0.050-0.62-0.13v0l-5.5-2.5c-0.52-0.24-0.88-0.76-0.88-1.37 0-0.83 0.67-1.5 1.5-1.5z"></path>
</symbol>
<symbol id="icon-computer" viewBox="0 0 35 32">
<title>computer</title>
<path d="M33.103 26.483h-10.483v2.759l2.207 2.207v0.552h-14.345v-0.552l2.207-2.207v-2.759h-10.483c-0.916 0-1.655-0.739-1.655-1.655v-22.069c0-0.916 0.739-1.655 1.655-1.655h30.897c0.916 0 1.655 0.739 1.655 1.655v22.069c0 0.916-0.739 1.655-1.655 1.655zM32.552 3.31h-29.793v18.759h29.793v-18.759zM14.345 11.034c0.452 0 0.872 0.188 1.17 0.486v0l1.037 1.037 3.244-3.244c0.298-0.298 0.717-0.486 1.17-0.486 0.916 0 1.655 0.739 1.655 1.655 0 0.452-0.188 0.872-0.486 1.17v0l-4.414 4.414c-0.298 0.298-0.717 0.486-1.17 0.486s-0.872-0.188-1.17-0.486v0l-2.207-2.207c-0.298-0.298-0.486-0.717-0.486-1.17 0-0.916 0.739-1.655 1.655-1.655z"></path>
</symbol>
<symbol id="icon-graf" viewBox="0 0 32 32">
<title>graf</title>
<path  d="M29.576 32h-28.121c-0.805 0-1.455-0.65-1.455-1.455v-28.121c0-0.805 0.65-1.455 1.455-1.455h28.121c0.805 0 1.455 0.65 1.455 1.455v28.121c0 0.805-0.65 1.455-1.455 1.455zM28.121 3.879h-25.212v25.212h25.212v-25.212zM5.062 16.718h-0.010l3.879-2.424h0.010c0.213-0.136 0.475-0.213 0.756-0.213 0.301 0 0.582 0.087 0.815 0.242h0.010l6.429 4.286 7.399-5.236c0.242-0.175 0.543-0.271 0.863-0.271 0.805 0 1.455 0.65 1.455 1.455 0 0.485-0.242 0.912-0.601 1.173v0l-8.242 5.818c-0.242 0.175-0.533 0.281-0.853 0.281-0.31 0-0.601-0.107-0.834-0.271l-6.458-4.296-3.035 1.891c-0.233 0.165-0.524 0.262-0.824 0.262-0.805 0-1.455-0.65-1.455-1.455 0-0.524 0.281-0.989 0.698-1.241z"></path>
</symbol>
<symbol id="icon-alarm" viewBox="0 0 32 32">
<title>ALARM</title>
<path  d="M30.74 10.5c-1.58-3.69-4.55-6.66-8.24-8.24 1-0.79 2.25-1.26 3.63-1.26 3.24 0 5.87 2.63 5.87 5.87 0 1.37-0.47 2.63-1.26 3.63zM30.5 17c0 3.85-1.51 7.34-3.96 9.94l2.030 2.030c0.26 0.27 0.43 0.64 0.43 1.050 0 0.82-0.66 1.48-1.48 1.48-0.41 0-0.78-0.17-1.050-0.43l-2.18-2.18c-2.35 1.64-5.21 2.61-8.29 2.61s-5.93-0.97-8.28-2.6l-2.16 2.16c-0.27 0.27-0.65 0.44-1.060 0.44-0.83 0-1.5-0.67-1.5-1.5 0-0.41 0.17-0.79 0.44-1.060l2.010-2.010c-2.44-2.6-3.95-6.080-3.95-9.93 0-8.010 6.49-14.5 14.5-14.5s14.5 6.49 14.5 14.5zM16 5.5c-6.35 0-11.5 5.15-11.5 11.5s5.15 11.5 11.5 11.5c6.35 0 11.5-5.15 11.5-11.5s-5.15-11.5-11.5-11.5zM22 18.5h-6c-0.83 0-1.5-0.67-1.5-1.5v-8c0-0.83 0.67-1.5 1.5-1.5s1.5 0.67 1.5 1.5v6.5h4.5c0.83 0 1.5 0.67 1.5 1.5s-0.67 1.5-1.5 1.5zM1.29 10.71c-0.81-1.030-1.29-2.31-1.29-3.71 0-3.31 2.69-6 6-6 1.4 0 2.69 0.48 3.71 1.29-3.78 1.61-6.81 4.64-8.42 8.42z"></path>
</symbol>
<symbol id="icon-twitter" viewBox="0 0 38 32">
<title>twitter</title>
<path d="M25.469 0.873c2.967-0.058 4.538 1.033 6.036 2.4 1.28-0.116 2.938-0.829 3.913-1.324 0.32-0.175 0.64-0.349 0.96-0.524-0.567 1.513-1.324 2.691-2.487 3.593-0.247 0.204-0.509 0.465-0.829 0.596 0 0 0 0.015 0 0.015 1.658-0.015 3.025-0.756 4.32-1.164 0 0 0 0 0 0.015-0.684 1.076-1.6 2.182-2.589 2.967-0.393 0.32-0.8 0.64-1.193 0.945 0.015 1.76-0.029 3.433-0.349 4.916-1.92 8.567-6.967 14.385-14.967 16.887-2.88 0.887-7.52 1.265-10.807 0.451-1.644-0.407-3.113-0.873-4.495-1.469-0.771-0.335-1.484-0.713-2.167-1.12-0.218-0.131-0.451-0.276-0.669-0.407 0.742 0.015 1.615 0.218 2.444 0.087 0.742-0.116 1.484-0.087 2.182-0.233 1.731-0.378 3.258-0.887 4.582-1.658 0.64-0.378 1.615-0.815 2.065-1.353-0.858 0.015-1.629-0.189-2.269-0.407-2.473-0.873-3.913-2.487-4.844-4.887 0.742 0.073 2.909 0.276 3.404-0.16-0.945-0.044-1.847-0.596-2.487-1.004-1.993-1.236-3.622-3.316-3.607-6.531 0.262 0.116 0.524 0.247 0.785 0.364 0.495 0.218 1.004 0.335 1.6 0.451 0.262 0.058 0.756 0.204 1.047 0.087-0.015 0-0.029 0-0.044 0-0.378-0.436-1.004-0.742-1.396-1.222-1.265-1.585-2.473-4.029-1.716-6.924 0.204-0.742 0.509-1.396 0.829-1.993 0.015 0 0.029 0.015 0.029 0.015 0.16 0.32 0.48 0.538 0.698 0.8 0.655 0.815 1.455 1.542 2.269 2.182 2.793 2.182 5.309 3.52 9.338 4.509 1.018 0.247 2.211 0.451 3.433 0.451-0.349-1.004-0.233-2.618 0.029-3.593 0.684-2.429 2.167-4.189 4.335-5.12 0.509-0.233 1.091-0.393 1.687-0.524 0.32-0.044 0.625-0.073 0.931-0.116z"></path>
</symbol>
<symbol id="icon-pinterest" viewBox="0 0 26 32">
<title>pinterest</title>
<path  d="M11.138 20.738c-0.258 1.034-0.517 2.105-0.788 3.151-0.258 1.046-0.492 2.092-0.874 3.040-0.64 1.588-1.452 3.102-2.523 4.345-0.702 0.812-0.554 0.492-0.763 0.443-0.172-0.037-0.185-0.197-0.209-0.418-0.172-1.255-0.062-2.708 0-4.111 0.074-1.612 0.418-2.942 0.726-4.283 0.603-2.535 1.169-5.022 1.772-7.582 0.037-0.172 0.148-0.455 0.111-0.542-0.271-0.714-0.455-1.354-0.529-2.092-0.086-0.862-0.025-1.662 0.172-2.4 0.332-1.305 1.12-2.449 2.326-2.88 0.775-0.258 1.625-0.135 2.142 0.172 0.529 0.308 0.898 0.812 1.058 1.526 0.185 0.763 0.049 1.662-0.098 2.326-0.32 1.502-0.751 2.634-1.145 4.074-0.197 0.726-0.418 1.465-0.234 2.228 0.16 0.714 0.529 1.206 1.046 1.575 0.517 0.382 1.132 0.591 1.994 0.566 1.514-0.062 2.56-1.022 3.262-1.932 1.12-1.465 1.809-3.434 2.068-5.772 0.074-0.751 0.135-1.625 0.086-2.474-0.111-1.588-0.603-2.855-1.391-3.84-0.751-0.935-1.809-1.686-3.089-2.105s-3.052-0.554-4.615-0.283c-2.855 0.48-4.862 2.105-6.043 4.345-0.628 1.169-1.034 2.523-1.034 4.197 0 1.292 0.32 2.289 0.837 3.077 0.16 0.246 0.394 0.455 0.554 0.738 0.234 0.394-0.025 0.997-0.148 1.428-0.135 0.529-0.148 1.243-0.751 1.255-0.258 0.012-0.578-0.172-0.788-0.295-1.612-0.886-2.585-2.498-2.978-4.603-0.246-1.268-0.246-2.745 0-3.975 0.234-1.194 0.665-2.289 1.145-3.175 1.009-1.858 2.474-3.335 4.258-4.394 1.378-0.812 2.929-1.378 4.812-1.649 0.628-0.098 1.268-0.135 1.969-0.16 2.055-0.098 3.926 0.357 5.329 0.985 1.489 0.665 2.671 1.551 3.668 2.646 1.034 1.132 1.785 2.437 2.265 4.074 0.246 0.849 0.48 1.76 0.48 2.818 0 1.046-0.222 1.982-0.369 2.917-0.591 3.471-2.24 6.326-4.726 7.938-0.603 0.394-1.329 0.763-2.166 0.997-0.812 0.246-1.748 0.418-2.757 0.357-0.972-0.074-1.772-0.332-2.437-0.714s-1.231-0.837-1.625-1.538z"></path>
</symbol>
<symbol id="icon-instagram" viewBox="0 0 32 32">
<title>instagram</title>
<path  d="M27.938 31.754h-23.631c-2.178 0-3.938-1.76-3.938-3.938v-23.631c0-2.178 1.76-3.938 3.938-3.938h23.631c2.178 0 3.938 1.76 3.938 3.938v23.631c0 2.178-1.76 3.938-3.938 3.938zM16.123 9.895c-2.462 0-4.566 1.452-5.538 3.545v0c-0.012 0.025-0.025 0.049-0.025 0.062-0.062 0.135-0.111 0.271-0.16 0.406-0.025 0.062-0.049 0.123-0.074 0.185-0.049 0.135-0.086 0.283-0.123 0.418-0.012 0.062-0.037 0.135-0.049 0.197-0.025 0.148-0.049 0.295-0.074 0.455 0 0.062-0.025 0.123-0.025 0.185-0.025 0.209-0.037 0.431-0.037 0.652 0 3.372 2.732 6.105 6.105 6.105s6.105-2.732 6.105-6.105c0-0.222-0.012-0.443-0.037-0.652 0-0.062-0.025-0.123-0.025-0.185-0.025-0.16-0.049-0.308-0.074-0.455-0.025-0.062-0.037-0.135-0.049-0.197-0.037-0.135-0.074-0.283-0.123-0.418-0.025-0.062-0.049-0.123-0.074-0.185-0.049-0.135-0.098-0.271-0.16-0.406 0-0.012-0.012-0.037-0.025-0.062v0c-0.972-2.092-3.077-3.545-5.538-3.545zM28.332 5.366c0-0.874-0.702-1.575-1.575-1.575h-3.151c-0.874 0-1.575 0.702-1.575 1.575v3.151c0 0.874 0.702 1.575 1.575 1.575h3.151c0.874 0 1.575-0.702 1.575-1.575v-3.151zM28.332 13.44h-2.905c0.222 0.812 0.345 1.674 0.345 2.56 0 5.329-4.32 9.649-9.649 9.649s-9.649-4.32-9.649-9.649c0-0.886 0.123-1.748 0.345-2.56h-2.905v13.194c0 0.874 0.702 1.575 1.575 1.575h21.268c0.874 0 1.575-0.702 1.575-1.575v-13.194z"></path>
</symbol>
<symbol id="icon-facebook" viewBox="0 0 16 32">
<title>facebook</title>
<path  d="M14.88 0.246c0 1.822 0 5.071 0 5.071s-3.742-0.369-4.677 1.058c-0.505 0.788-0.209 3.077-0.246 4.726 1.625 0 3.323 0 4.948 0-0.418 1.92-0.714 3.225-1.022 4.898-1.415 0-3.963 0-3.963 0v15.754c0 0-4.665 0-6.868 0 0-4.862 0-10.523 0-15.692-1.071 0-1.858 0-2.917 0 0-1.822 0-3.138 0-4.96 1.034 0 1.846 0 2.88 0 0.16-3.631 0.209-7.225 2.006-9.046 2.031-2.055 3.963-1.809 9.858-1.809z"></path>
</symbol>
</defs>
</svg>
